<svg class="text-indigo-500 bg-indigo-500/20 p-2.5 aspect-square rounded-full size-10" width="21"
                height="21" viewBox="0 0 21 21" fill="none" xmlns="http://www.w3.org/2000/svg">
                <path
                    d="m19 13.513-4.415-1.98-.017-.007a1.87 1.87 0 0 0-1.886.243l-2.091 1.781c-1.22-.66-2.478-1.91-3.14-3.113l1.787-2.125q.043-.051.08-.108a1.88 1.88 0 0 0 .148-1.782L7.488 2A1.88 1.88 0 0 0 5.539.89 5.65 5.65 0 0 0 .625 6.5c0 7.651 6.224 13.875 13.875 13.875a5.65 5.65 0 0 0 5.61-4.914A1.88 1.88 0 0 0 19 13.513m-4.5 4.612A11.64 11.64 0 0 1 2.875 6.5a3.4 3.4 0 0 1 2.67-3.332l1.764 3.938-1.796 2.14q-.044.051-.08.108a1.88 1.88 0 0 0-.12 1.841c.883 1.808 2.702 3.615 4.529 4.5a1.88 1.88 0 0 0 1.845-.136q.055-.036.105-.08l2.102-1.787 3.938 1.763a3.4 3.4 0 0 1-3.332 2.67"
                    fill="currentColor" />
            </svg>